<svg xmlns="http://www.w3.org/2000/svg" width="211.571" height="206.2" xmlns:v="https://vecta.io/nano"><style><![CDATA[.B{fill:#e60013}.C{fill-rule:evenodd}]]></style><defs><clipPath id="A"><path d="M0 425.197h283.465V0H0z" transform="translate(-113.016 -243.981)"/></clipPath><clipPath id="B"><path d="M0 425.197h283.465V0H0z" transform="translate(-145.305 -260.252)"/></clipPath><clipPath id="C"><path d="M0 425.197h283.465V0H0z" transform="translate(-174.198 -243.981)"/></clipPath><clipPath id="D"><path d="M0 425.197h283.465V0H0z" transform="translate(-142.903 -248.739)"/></clipPath><clipPath id="E"><path d="M0 425.197h283.465V0H0z" transform="translate(-141.732 -223.269)"/></clipPath><clipPath id="F"><path d="M0 425.197h283.465V0H0z" transform="translate(-118.908 -283.258)"/></clipPath><clipPath id="G"><path d="M0 425.197h283.465V0H0z" transform="translate(-139.562 -287.811)"/></clipPath><clipPath id="H"><path d="M0 425.197h283.465V0H0z" transform="translate(-150.525 -296.456)"/></clipPath><clipPath id="I"><path d="M0 425.197h283.465V0H0z" transform="translate(-166.091 -299.211)"/></clipPath><clipPath id="J"><path d="M0 425.197h283.465V0H0z" transform="translate(-167.414 -290.728)"/></clipPath><clipPath id="K"><path d="M0 425.197h283.465V0H0z" transform="translate(-153.296 -284.397)"/></clipPath><clipPath id="L"><path d="M0 425.197h283.465V0H0z" transform="translate(-164.241 -284.78)"/></clipPath><clipPath id="M"><path d="M0 425.197h283.465V0H0z" transform="translate(-163.01 -275.957)"/></clipPath><clipPath id="N"><path d="M0 425.197h283.465V0H0z" transform="translate(-51.977 -301.475)"/></clipPath><clipPath id="O"><path d="M0 425.197h283.465V0H0z" transform="translate(-144.182 -364.904)"/></clipPath><clipPath id="P"><path d="M0 425.197h283.465V0H0z" transform="translate(-83.807 -194.182)"/></clipPath><clipPath id="Q"><path d="M0 425.197h283.465V0H0z" transform="translate(-195.689 -191.299)"/></clipPath><clipPath id="R"><path d="M0 425.197h283.465V0H0z" transform="translate(-232.999 -296.812)"/></clipPath><clipPath id="S"><path d="M0 425.197h283.465V0H0z" transform="translate(-196.953 -356.098)"/></clipPath></defs><g transform="matrix(.86735 0 0 -.86735 -17.146257 342.567566)"><g transform="translate(196.953 356.098)" clip-path="url(#S)" class="B"><path d="M0 0c.854-2.394 1.566-4.878 2.111-7.44 19.231 1.984 37.776-5.688 50.06-19.671 2.584-2.942 4.877-6.131 6.824-9.539 1.962-3.427 3.602-7.11 4.87-11.016l-.004-.002.004-.004c6.511-20.029 1.664-41.316-11.381-56.446-2.532-2.938-5.378-5.646-8.514-8.069-2.024-1.563-4.169-3.01-6.429-4.319 7.839-17.691 6.284-37.694-3.211-53.674a58.32 58.32 0 0 0-6.984-9.453c-2.663-2.935-5.657-5.631-8.969-8.036l-.004-.004c-17.042-12.381-38.775-14.357-57.189-6.63a58.11 58.11 0 0 0-10.308 5.616c-2.111 1.435-4.151 3.032-6.097 4.777-14.397-12.91-33.904-17.609-52.044-13.522a58.4 58.4 0 0 0-11.137 3.714 58.81 58.81 0 0 0-10.412 6.041l-.006.008h-.001c-17.046 12.381-25.644 32.447-23.984 52.346.319 3.83 1.033 7.693 2.153 11.53a58.91 58.91 0 0 0 2.665 7.28c-16.733 9.705-27.231 26.814-28.946 45.339a58.37 58.37 0 0 0 .089 11.715c.433 3.949 1.271 7.896 2.533 11.789l.001.002c6.508 20.033 22.94 34.409 42.384 38.981 3.744.882 7.641 1.396 11.637 1.516a59.28 59.28 0 0 0 7.728-.276c4.062 18.916 17.082 34.185 34.161 41.539 3.545 1.525 7.291 2.714 11.193 3.527a58.81 58.81 0 0 0 11.978 1.223v.019h.008v-.019c21.058 0 39.805-11.179 50.157-28.255C-3.021 7.22-1.32 3.677 0 0m-5.691-12.886v.007c-.477 3.429-1.312 6.765-2.457 9.97-1.156 3.23-2.6 6.25-4.285 9.036-8.834 14.56-24.821 24.096-42.788 24.096v-.017h-.008v.017c-3.475 0-6.895-.364-10.219-1.055-3.28-.685-6.472-1.703-9.538-3.023-15.645-6.737-27.301-21.251-29.777-39.037l-.619-4.445-4.402.777h-.004c-3.487.62-6.923.866-10.264.767s-6.655-.544-9.914-1.311c-16.572-3.897-30.579-16.154-36.13-33.236l-.002-.002h.002c-1.081-3.328-1.796-6.688-2.161-10.029-.371-3.388-.393-6.744-.09-10.026 1.572-16.956 11.777-32.522 27.932-40.373l4.005-1.951-2.06-3.934-.004-.004-.017-.033c-1.641-3.081-2.929-6.265-3.876-9.502-.936-3.204-1.541-6.5-1.818-9.842-1.416-16.975 5.909-34.084 20.435-44.637l.006-.008a50.57 50.57 0 0 1 8.892-5.161 49.61 49.61 0 0 1 9.481-3.17c16.619-3.747 34.581 1.149 47.044 14.089l3.124 3.241 3.114-3.259.004-.008c2.413-2.502 5.042-4.706 7.828-6.608a49.75 49.75 0 0 1 8.789-4.77c15.703-6.589 34.241-4.904 48.774 5.65v.004c2.826 2.055 5.381 4.355 7.652 6.854s4.251 5.191 5.937 8.032c8.704 14.656 9.606 33.261 1.152 49.106l-2.137 4.005 4.098 1.928h.004a50.29 50.29 0 0 1 8.689 5.39 50.21 50.21 0 0 1 7.261 6.884c11.116 12.894 15.24 31.046 9.688 48.132h.004l-.004.004c-1.078 3.311-2.476 6.453-4.158 9.394-1.697 2.961-3.647 5.688-5.81 8.154C34.446-20.001 17.031-13.41-.671-16.554l-4.397-.783z"/></g><g transform="translate(232.999 296.812)" clip-path="url(#R)" class="B C"><path d="M0 0a5.8 5.8 0 0 1 9.755 5.747c-.988 3.044-4.258 4.711-7.305 3.721a5.8 5.8 0 0 1-3.964-4.805l-14.685-4.77 1.517-4.664z"/></g><g transform="translate(195.689 191.299)" clip-path="url(#Q)" class="B C"><path d="M0 0c-1.055-1.909-.988-4.337.38-6.216a5.8 5.8 0 0 1 8.1-1.283A5.8 5.8 0 0 1 9.759.6C8.395 2.48 6.108 3.297 3.964 2.883l-9.073 12.489-3.968-2.883z"/></g><g transform="translate(83.807 194.182)" clip-path="url(#P)" class="B C"><path d="M0 0c-2.14.414-4.428-.403-5.793-2.282a5.8 5.8 0 0 1 1.281-8.1c2.59-1.879 6.216-1.309 8.1 1.283 1.364 1.879 1.435 4.307.382 6.216l9.073 12.489-3.968 2.883z"/></g><g transform="translate(144.182 364.904)" clip-path="url(#O)" class="B C"><path d="M0 0a5.8 5.8 0 0 1-2.45 11.052 5.8 5.8 0 0 1-5.799-5.798C-8.249 2.929-6.877.925-4.904 0v-15.437H0z"/></g><g transform="translate(51.977 301.475)" clip-path="url(#N)" class="B C"><path d="M0 0a5.8 5.8 0 0 1-11.27 1.083 5.8 5.8 0 0 1 3.724-7.305c2.211-.718 4.542-.036 6.03 1.559l14.683-4.772 1.516 4.665z"/></g><g transform="translate(163.011 275.957)" clip-path="url(#M)" class="B"><path d="M0 0l.209-.125c.597-.394.895-.735.895-1.035 0-.14-.09-.417-.268-.826l-.59-2.286-1.275-3.699 1.204.048 3.084.215.064.199.738 4.218.336 2.843c.004.411-.373.616-1.115.618C2.495.175 1.402.115 0 0m-5.534-.582l.179-.069c.317-.175.47-.371.466-.567l.026-1.913.179-5.021 2.73.14.358 4.243.104 2.672c0 .181-.044.48-.149.897l.012.051-.399-.04-3.506-.393m-4.169-7.921l3.718.271-.041.154-1.294 6.234c-.153.421-.246.742-.276.956l-2.405-.432-.605-.16a6.39 6.39 0 0 1 .127-1.222c.526-2.653.795-4.484.787-5.495l-.011-.306m20.234 1.565c.19-.002.895-.235 2.114-.701 1.034-.569 1.544-1.085 1.541-1.546 0-.403-.713-.6-2.141-.593l-6.996.116c-2.61.015-6.026-.084-10.24-.304-3.028-.108-6.257-.44-9.692-.99-.969-.183-1.566-.269-1.786-.269-.47.002-1.164.209-2.089.617-.976.437-1.461.787-1.461 1.059.004.319.324.506.958.558 3.393.005 5.982.112 7.76.309-.141.329-.223.666-.242 1.02l-.496 2.549c-.198 1.322-.406 2.256-.634 2.784-.146.545-.514 1.055-1.111 1.518-.228.127-.347.208-.347.266.004.444.198.673.574.672.467-.004.895-.058 1.279-.166 1.078.046 2.178.141 3.308.3L2.156 1.576c.756.085 1.495.234 2.2.447.44.088.738.127.898.127.299-.002.922-.276 1.872-.825C8.133.609 8.629.065 8.629-.319c-.003-.313-.13-.625-.38-.936-.828-1.207-1.443-2.489-1.824-3.852l-.82-2.353-.015-.043c1.294.127 2.409.259 3.334.401.846.106 1.383.164 1.607.164"/></g><g transform="translate(164.241 284.78)" clip-path="url(#L)" class="B"><path d="M0 0c3.14-.845 5.687-1.73 7.633-2.661.858-.361 1.552-.898 2.078-1.607.395-.731.596-1.432.619-2.096-.064-.692-.511-1.001-1.335-.928-.306.026-.66.128-1.059.298a29.34 29.34 0 0 0-3.148 2.527C3.14-2.95 1.529-1.699-.063-.705c-.235.135-.344.285-.329.47C-.377-.06-.25.023 0 0"/></g><g transform="translate(153.296 284.398)" clip-path="url(#K)" class="B"><path d="M0 0c.321 0 .772-.16 1.342-.486 1.182-.78 1.776-1.447 1.776-2.018 0-.09-.169-.202-.511-.319-.291-.183-.608-.412-.948-.682-1.521-1.24-3.043-2.264-4.557-3.077-1.223-.667-2.621-1.24-4.18-1.727-1.059-.333-1.753-.501-2.096-.501-.201 0-.305.056-.305.153 0 .071.13.145.391.244 1.376.703 2.76 1.551 4.136 2.547 1.252.899 2.394 1.921 3.43 3.069.646.709.974 1.363.974 1.969C-.548-.272-.369 0 0 0"/></g><g transform="translate(167.415 290.728)" clip-path="url(#J)" class="B"><path d="M0 0c.489 0 1.115-.216 1.894-.656.519-.256.776-.569.78-.944 0-.339-.444-.602-1.32-.798C.339-2.73-1.924-3.17-5.433-3.699c-5.307-.729-8.775-1.095-10.39-1.098-1.155-.002-1.957.147-2.412.438-.444.352-.675.658-.675.913 0 .278.634.437 1.909.483 2.987.276 6.276.739 9.856 1.384 2.498.408 4.512.846 6.06 1.307C-.544-.091-.179 0 0 0"/></g><g transform="translate(166.091 299.212)" clip-path="url(#I)" class="B"><path d="M0 0c.462.101 1.301.006 2.532-.289 1.175-.419 1.812-.858 1.913-1.32.022-.103-.101-.25-.366-.457-.417-.268-.976-.804-1.677-1.598a39.57 39.57 0 0 0-3.76-3.83c-.977-.753-1.566-1.152-1.774-1.199-.15-.031-.243.027-.276.183C-2.32-6.578-1.51-4.893-.996-3.449c.425 1.197.578 2.062.466 2.586-.104.475.075.764.53.863"/></g><g transform="translate(150.526 296.456)" clip-path="url(#H)" class="B"><path d="M0 0c.477 0 .999-.104 1.559-.319C2.92-.744 3.938-1.21 4.621-1.724c.596-.592.902-1.399.902-2.421 0-1.044-.429-1.559-1.287-1.559-.358 0-.738.187-1.141.565-.764.673-1.834 2.092-3.229 4.27-.179.222-.261.39-.261.502C-.343-.125-.209 0 0 0"/></g><g transform="translate(139.562 287.811)" clip-path="url(#G)" class="B"><path d="M0 0c.194 0 .787-.263 1.771-.798.94-.559 1.414-1.059 1.414-1.49 0-.249-.164-.617-.474-1.107-.399-.737-.742-2.129-1.018-4.175L.201-17.268c-.671-2.537-1.551-4.257-2.617-5.157-.683-.576-1.216-.86-1.619-.86-.365 0-.72.334-1.053 1.013-.636 1.066-1.516 2.232-2.661 3.5 0 .132.048.201.145.201 1.727-.632 2.857-.943 3.375-.943.403 0 .75.346 1.055 1.047.746 1.401 1.429 3.985 2.025 7.764.448 2.934.679 5.449.679 7.55 0 .651-.436.977-1.316.977-.597 0-1.518-.125-2.767-.369l-1-.22-1.109-5.568c-.781-2.972-1.932-5.731-3.444-8.269-1.449-2.364-3.063-3.938-4.831-4.729-.645-.346-1.125-.568-1.443-.658-.263 0-.388.069-.388.202 0 .222.201.492.602.811 2.059 2.252 3.474 4.076 4.257 5.47.839 1.442 1.643 3.383 2.428 5.816.52 1.652.993 3.731 1.415 6.222l-.744-.248c-.367-.104-.638-.153-.811-.153-.457 0-.972.189-1.531.563-.561.332-.839.602-.839.804.095.173.332.257.699.257.878.03 2.042.179 3.489.446a52.18 52.18 0 0 1 .49 6.035c0 .804-.089 1.503-.27 2.095-.118.331-.174.553-.174.67.146.39.403.582.757.582.36 0 .942-.221 1.746-.665.805-.477 1.204-.88 1.204-1.205 0-.222-.078-.548-.254-.986-.175-.658-.365-1.663-.57-3.021l-.444-3.024C-3.3-.936-1.719-.539-.574-.125-.276-.041-.089 0 0 0"/></g><g transform="translate(118.908 283.258)" clip-path="url(#F)" class="B"><path d="M0 0l-.074-3.274.99.179 2.371.289.025.05.443 1.497.192 1.015c0 .337-.337.503-1.014.503C2.29.259 1.313.171 0 0m-5.568-3.914l3.14.3-.048 3.252-2.773-.608c-.272-.102-.509-.164-.707-.175l.053-.472.335-2.297M.724 8.424l-1.561-.183-2.894-.434.157-3.023c1.042.121 2.023.308 2.951.556l.968.183.379 2.901M2.545-9.653c.215 0 .651-.069 1.298-.222.587-.207.886-.386.886-.537 0-.235-.36-.429-1.073-.58l-2.2-.317-1.719-.341-.052-2.334 4.393 1.114c.498.146.85.213 1.057.213.697 0 1.05-.171 1.05-.524 0-.33-.394-.613-1.18-.835l-8.326-2.56-3.155-1.167c-.559-.338-.982-.504-1.271-.504-.435 0-1.035.323-1.796.966-.841.794-1.262 1.326-1.262 1.587 0 .291.199.442.6.442.174 0 .463-.034.863-.103l1.035-.097c.409 0 1.155.069 2.238.214l3.8.813-.036 2.382-.354-.067c-1.2-.215-2.072-.325-2.603-.325-.455 0-.835.048-1.139.138-.455.151-.683.317-.683.505 0 .269.359.42 1.069.448l3.692.639-.032 2.089-.554-.097-2.843-.326c-.449 0-.828.05-1.132.139-.455.151-.682.317-.682.504 0 .268.352.421 1.068.455l4.124.649-.033 2.269-.819-.081-2.028-.165-.273.009c-.028-.226-.083-.414-.164-.569-.123-.263-.268-.393-.44-.393-.193 0-.395.158-.587.475a2.53 2.53 0 0 0-.485 1.32l-.358 1.533c-.145.8-.296 1.359-.455 1.676-.104.332-.365.634-.794.912-.158.077-.242.131-.242.159 0 .372.16.559.477.559.503 0 .953-.075 1.339-.22l.248-.093c.69.039 1.393.125 2.114.25l2.381.361-.015 1.007c-.026.373-.158.772-.391 1.209-.189.212-.278.37-.278.482 0 .043.004.08.007.12l-.283-.01-.151.004a1.65 1.65 0 0 0-.146-.453c-.124-.261-.27-.394-.442-.394-.193 0-.393.159-.587.478-.296.414-.455.856-.475 1.318l-.349 2.993-1.702-.341-.96-.202c-.566 0-1.132.153-1.69.449-.677.269-1.009.532-1.009.772 0 .112.249.222.754.325l4.441.658-.308 1.96c-.104.675-.365 1.297-.787 1.87-.165.153-.247.263-.247.332 0 .365.158.552.475.552.505 0 .953-.069 1.341-.22.848-.291 1.269-.651 1.269-1.071l.062-1.575.119-1.548 4.785.806.225 2.731c0 .642-.089 1.201-.283 1.677l-.227.423c0 .481.276.724.835.724.477 0 1.111-.243 1.911-.718.753-.517 1.134-.959 1.134-1.319 0-.048-.069-.179-.215-.406-.283-.368-.524-.981-.71-1.844l-.183-.795 2.033.353c.13 0 .572-.133 1.31-.401.905-.565 1.354-1.001 1.354-1.298-.028-.296-.449-.455-1.27-.483l-3.899-.231-.83-3.63c.333-.244.498-.453.498-.627 0-.156-.084-.24-.264-.24-.703 0-1.352-.049-1.939-.159l-1.294-.167.376-.137c.532-.268.793-.566.793-.891a2.19 2.19 0 0 0-.116-.697C.093 1.704.043 1.359.026 1.07l2.624.364a7.01 7.01 0 0 1 1.456.365c.291.069.49.105.593.105.277 0 .837-.228 1.698-.677C7.309.647 7.766.197 7.766-.12c0-.124-.104-.247-.311-.38-.677-.475-1.168-.986-1.479-1.533l-.654-.945a1.45 1.45 0 0 0-.364-.39c.386-.277.578-.518.578-.714 0-.214-.153-.324-.47-.324-1.249 0-2.396-.069-3.438-.215l-1.736-.175-.047-2.066 1.747.384 1.278.23c.214 0 .649-.079 1.297-.23.588-.207.884-.386.884-.538 0-.236-.358-.428-1.068-.58l-2.404-.317-1.765-.319-.045-2.025 1.611.382 1.165.222"/></g><g transform="translate(141.732 223.269)" clip-path="url(#E)" class="C"><path d="M0 0c-25.657 0-46.465 20.805-46.465 46.463S-25.657 92.93 0 92.93s46.465-20.808 46.465-46.467S25.652 0 0 0m8.905-12.679a59.63 59.63 0 0 1 12.959 3.468l6.555-11.355 15.421 8.905-6.564 11.37c3.506 2.793 6.683 5.978 9.48 9.479l11.366-6.563 8.905 15.42-11.351 6.556c1.619 4.115 2.797 8.456 3.468 12.961h13.112v17.806H59.14a59.48 59.48 0 0 1-3.468 12.959l11.355 6.556-8.905 15.422-11.366-6.565a60.4 60.4 0 0 1-9.48 9.479l6.56 11.371-15.417 8.903-6.559-11.354c-4.117 1.619-8.454 2.795-12.959 3.469v13.113H-8.904v-13.115a59.35 59.35 0 0 1-12.962-3.467l-6.554 11.354-15.422-8.903 6.567-11.371c-3.504-2.795-6.686-5.978-9.483-9.479l-11.368 6.565-8.904-15.422 11.354-6.556a59.24 59.24 0 0 1-3.466-12.961h-13.116V37.56h13.116a59.39 59.39 0 0 1 3.466-12.959l-11.354-6.556 8.904-15.42 11.368 6.563a60.08 60.08 0 0 1 9.483-9.479l-6.567-11.37 15.422-8.905 6.556 11.355c4.117-1.618 8.456-2.797 12.96-3.468v-13.116H8.905z" fill="#094"/></g><g transform="translate(142.903 248.739)" clip-path="url(#D)"><path d="M0 0v-4.758h-13.332a2.38 2.38 0 0 0-2.377 2.379V9.133a2.38 2.38 0 0 0 2.377 2.379H0V6.756h-10.953V0z" fill="#094"/></g><g transform="translate(174.198 243.981)" clip-path="url(#C)"><path d="M0 0h-4.758v11.514h-5.762v4.757H5.765v-4.757H0z" fill="#094"/></g><g transform="translate(145.305 260.252)" clip-path="url(#B)"><path d="M0 0h4.755v-11.512h6.757V0h4.758v-13.891a2.38 2.38 0 0 0-2.379-2.38H2.379A2.38 2.38 0 0 0 0-13.891z" fill="#094"/></g><g transform="translate(113.016 243.981)" clip-path="url(#A)"><path d="M0 0h-4.756v16.271h3.665c.888-.172 1.552-.497 1.992-.976l5.855-6.328v7.304l4.758-.034V0H8.989c-1.73 0-2.548.824-3.145 1.548L0 8.376z" fill="#094"/></g></g></svg>